<svg width="362" height="222" viewBox="0 0 362 222" fill="none" xmlns="http://www.w3.org/2000/svg">
<path d="M-91.194 86.1622L-50.8115 26.1463C-29.5765 1.9928 9.5582 -5.35092 39.2032 5.65863C73.1552 18.2599 89.1474 57.137 109.507 84.4378C112.446 88.7548 114.677 85.3543 117.053 82.6772C139.392 57.4747 147.73 22.2996 182.569 7.51565C274.732 -31.6026 310.687 92.1192 355.952 145.382C370.961 177.036 354.261 217.807 319.553 225.789C263.466 238.68 246.43 180.509 219.785 144.791C216.137 140.583 213.33 145.057 210.835 147.951C182.929 180.473 176.943 218.337 126.411 227.019C66.7487 237.281 39.7191 187.274 12.0177 144.996L9.17429 142.946C7.15878 142.946 4.56741 147.444 3.28372 149.157C-24.5737 186.43 -41.7177 232.566 -98.7762 228.539C-153.903 224.644 -162.469 181.606 -191.274 147.951C-194.73 143.911 -196.205 140.752 -200.692 145.515C-213.781 159.431 -226.174 186.888 -239.251 203.167C-284.828 259.879 -365.425 208.57 -335.504 143.863C-311.306 110.038 -290.395 72.5118 -265.933 39.049C-244.302 9.4571 -218.328 -4.22947 -180.693 2.41485C-134.828 10.5183 -121.199 52.0724 -96.3648 85.1854L-91.194 86.1863V86.1622Z" fill="#01D0FE" fill-opacity="0.1"/>
</svg>
