<svg width="100" height="180" viewBox="0 0 100 180" fill="none" xmlns="http://www.w3.org/2000/svg">
<path d="M5.83913 0.741295C21.8314 -4.00981 20.8596 15.2358 23.8709 25.4977C30.7932 49.0241 47.6973 66.8348 71.0198 74.5282C82.2251 78.2302 103.4 76.3129 98.3133 93.605C96.3938 100.129 81.6253 100.539 75.7826 102.287C51.5844 109.534 32.5808 124.957 24.4707 149.557C21.1235 159.711 21.7594 184.648 5.28727 177.859C-2.10299 174.82 -1.77908 161.604 -3.75861 154.429C-11.2328 127.321 -29.5645 110.21 -56.2222 102.299C-66.3958 99.2846 -83.5758 100.888 -78.7529 84.4645C-76.7254 77.5429 -58.2737 76.6988 -51.3994 74.6005C-26.4812 66.9674 -10.657 48.6262 -3.51865 23.906C-1.73107 17.7078 -1.34717 2.88774 5.81515 0.753353L5.83913 0.741295ZM45.7777 88.4439C28.2139 84.2716 15.1129 70.9227 10.9859 53.4979C6.72693 57.9837 5.49123 65.2551 1.92808 70.2836C-3.93854 78.5558 -15.0839 86.201 -24.9816 88.4439C-17.7233 93.5929 -9.15731 95.5464 -2.60686 102.106C3.87162 108.606 5.67119 117.445 10.9979 124.572C13.7453 113.538 20.3437 102.384 30.3014 96.3664L45.7897 88.4559L45.7777 88.4439Z" fill="#01D0FE" fill-opacity="0.1"/>
</svg>
