<svg width="270" height="150" viewBox="0 0 270 150" fill="none" xmlns="http://www.w3.org/2000/svg">
<mask id="mask0_156_205" style="mask-type:alpha" maskUnits="userSpaceOnUse" x="6" y="3" width="277" height="258">
<path d="M188.629 107.417C278.407 215.725 239.474 281.58 101.471 254.392C-36.5326 227.203 -21.7814 199.426 134.279 192.406C290.339 185.385 329.378 119.526 221.437 45.431C113.496 -28.6643 98.85 -0.890035 188.629 107.417Z" stroke="#404040" stroke-width="0.840798" stroke-miterlimit="10"/>
<path d="M186.304 111.181C258.375 205.933 222.766 265.991 106.814 245.262C-9.1384 224.533 4.20297 199.226 136.712 188.746C269.221 178.266 304.83 118.208 216.202 54.6642C127.574 -8.87991 114.23 16.3223 186.304 111.181Z" stroke="#404040" stroke-width="0.840798" stroke-miterlimit="10"/>
<path d="M183.871 114.841C240.16 196.83 207.979 251.087 112.049 236.029C16.118 220.972 28.1522 198.025 139.139 184.874C250.126 171.723 282.2 117.47 210.961 63.6858C139.723 9.90178 127.583 32.8515 183.871 114.841Z" stroke="#404040" stroke-width="0.840798" stroke-miterlimit="10"/>
<path d="M181.547 118.604C223.87 188.624 195.122 237.185 117.286 226.902C39.4528 216.725 50.2883 196.242 141.466 181.217C232.643 166.192 261.394 117.737 205.726 72.9187C150.059 28.1006 139.118 48.5867 181.547 118.604Z" stroke="#404040" stroke-width="0.840798" stroke-miterlimit="10"/>
<path d="M179.114 122.264C209.396 181.106 184.078 223.866 122.521 217.669C60.9641 211.473 70.4983 193.562 143.79 177.454C217.083 161.346 242.507 118.584 200.383 82.0486C158.26 45.5137 148.834 63.5273 179.114 122.264Z" stroke="#404040" stroke-width="0.840798" stroke-miterlimit="10"/>
<path d="M176.79 126.027C196.952 174.377 175.063 211.335 127.865 208.539C80.666 205.743 88.893 190.193 146.326 173.685C203.763 157.282 225.652 120.325 195.251 91.1731C164.851 62.0217 156.627 77.6773 176.79 126.027Z" stroke="#404040" stroke-width="0.840798" stroke-miterlimit="10"/>
<path d="M174.36 129.793C186.329 168.548 167.764 199.707 132.997 199.415C98.2293 199.123 105.258 186.036 148.653 170.027C192.049 154.019 210.509 122.862 190.017 100.406C169.524 77.9491 162.496 91.0356 174.36 129.793Z" stroke="#404040" stroke-width="0.840798" stroke-miterlimit="10"/>
<path d="M172.032 133.45C177.624 163.298 162.491 188.762 138.34 190.285C114.189 191.807 119.91 181.082 150.981 166.37C182.157 151.655 197.185 126.194 184.673 109.536C172.162 92.8772 166.44 103.603 172.032 133.45Z" stroke="#404040" stroke-width="0.840798" stroke-miterlimit="10"/>
<path d="M169.602 137.217C170.635 158.951 159.037 178.611 143.578 181.158C128.115 183.599 132.532 175.34 153.411 162.604C174.289 149.869 185.887 130.209 179.435 118.663C172.984 107.117 168.57 115.482 169.602 137.217Z" stroke="#404040" stroke-width="0.840798" stroke-miterlimit="10"/>
<path d="M167.275 140.874C165.778 155.284 157.506 169.251 148.918 171.922C140.33 174.593 143.337 168.803 155.841 158.838C168.345 148.873 176.514 135.015 174.198 127.79C171.882 120.565 168.772 126.463 167.275 140.874Z" stroke="#404040" stroke-width="0.840798" stroke-miterlimit="10"/>
<path d="M164.845 144.64C162.636 152.52 157.794 160.685 154.05 162.797C150.306 164.91 152.111 161.478 158.062 155.184C164.013 148.889 168.856 140.724 168.857 137.026C168.859 133.328 167.054 136.759 164.845 144.64Z" stroke="#404040" stroke-width="0.840798" stroke-miterlimit="10"/>
</mask>
<g mask="url(#mask0_156_205)">
<g opacity="0.5">
<rect x="24.926" y="-63.4808" width="415.775" height="415.775" fill="url(#paint0_linear_156_205)"/>
<rect x="24.926" y="-63.4808" width="415.775" height="415.775" fill="url(#paint1_linear_156_205)"/>
</g>
</g>
<defs>
<linearGradient id="paint0_linear_156_205" x1="180.444" y1="58.2096" x2="247.107" y2="226.384" gradientUnits="userSpaceOnUse">
<stop stop-color="#01D0FE"/>
<stop offset="1" stop-color="#0091B2"/>
</linearGradient>
<linearGradient id="paint1_linear_156_205" x1="188.251" y1="89.5445" x2="247.107" y2="226.384" gradientUnits="userSpaceOnUse">
<stop stop-color="white"/>
<stop offset="1" stop-color="#005265"/>
</linearGradient>
</defs>
</svg>
