<svg width="24" height="25" viewBox="0 0 24 25" fill="none" xmlns="http://www.w3.org/2000/svg">
<path d="M12 23.26C10.52 23.26 9.02999 22.7 7.86999 21.59C4.91999 18.75 1.65999 14.22 2.88999 8.83C3.99999 3.94 8.26999 1.75 12 1.75C12 1.75 12 1.75 12.01 1.75C15.74 1.75 20.01 3.94 21.12 8.84C22.34 14.23 19.08 18.75 16.13 21.59C14.97 22.7 13.48 23.26 12 23.26ZM12 3.25C9.08999 3.25 5.34999 4.8 4.35999 9.16C3.27999 13.87 6.23999 17.93 8.91999 20.5C10.65 22.17 13.36 22.17 15.09 20.5C17.76 17.93 20.72 13.87 19.66 9.16C18.66 4.8 14.91 3.25 12 3.25Z" fill="white"/>
<path d="M10.75 14.2499C10.56 14.2499 10.37 14.1799 10.22 14.0299L8.72 12.5299C8.43 12.2399 8.43 11.7599 8.72 11.4699C9.01 11.1799 9.49 11.1799 9.78 11.4699L10.75 12.4399L14.22 8.96994C14.51 8.67994 14.99 8.67994 15.28 8.96994C15.57 9.25994 15.57 9.73994 15.28 10.0299L11.28 14.0299C11.13 14.1799 10.94 14.2499 10.75 14.2499Z" fill="white"/>
</svg>
