<svg width="356" height="285" viewBox="0 0 356 285" fill="none" xmlns="http://www.w3.org/2000/svg">
<path d="M57.7195 11.6338L53.0924 9.93161L51.389 5.30437C51.2881 5.03052 51.1056 4.79418 50.8661 4.62724C50.6266 4.4603 50.3416 4.37079 50.0496 4.37079C49.7575 4.37079 49.4725 4.4603 49.233 4.62724C48.9935 4.79418 48.811 5.03052 48.7101 5.30437L47.0049 9.92624L42.3742 11.6284C42.1002 11.7292 41.8636 11.9116 41.6966 12.1509C41.5295 12.3903 41.4399 12.6751 41.4399 12.9669C41.4399 13.2587 41.5295 13.5435 41.6966 13.7828C41.8636 14.0221 42.1002 14.2045 42.3742 14.3053L46.9986 16.0183L48.702 20.6428C48.8029 20.9167 48.9854 21.153 49.225 21.3199C49.4645 21.4869 49.7495 21.5764 50.0415 21.5764C50.3335 21.5764 50.6185 21.4869 50.858 21.3199C51.0976 21.153 51.2801 20.9167 51.3809 20.6428L53.0844 16.0192L57.7151 14.317C57.9891 14.2162 58.2256 14.0338 58.3927 13.7945C58.5597 13.5551 58.6493 13.2703 58.6493 12.9785C58.6493 12.6867 58.5597 12.4019 58.3927 12.1626C58.2256 11.9232 57.9891 11.7409 57.7151 11.6401L57.7195 11.6338ZM52.5922 14.6744C52.3984 14.7455 52.2223 14.8579 52.0763 15.0038C51.9303 15.1497 51.8179 15.3256 51.7467 15.5192L50.0433 20.1295L48.3434 15.5157C48.2722 15.323 48.1601 15.148 48.0148 15.0028C47.8695 14.8576 47.6944 14.7456 47.5016 14.6744L42.8879 12.9722L47.5016 11.2701C47.6944 11.1989 47.8695 11.0869 48.0148 10.9417C48.1601 10.7964 48.2722 10.6215 48.3434 10.4288L50.0469 5.8186L51.7503 10.4288C51.8215 10.6225 51.9339 10.7984 52.0799 10.9443C52.2259 11.0902 52.4019 11.2026 52.5958 11.2736L57.2094 12.9758L52.5922 14.6744ZM52.9158 3.65504C52.9158 3.46496 52.9914 3.28266 53.1259 3.14825C53.2604 3.01384 53.4428 2.93833 53.6331 2.93833H55.0675V1.50492C55.0675 1.31483 55.1431 1.13254 55.2776 0.998127C55.4121 0.863718 55.5946 0.788208 55.7848 0.788208C55.975 0.788208 56.1574 0.863718 56.292 0.998127C56.4265 1.13254 56.502 1.31483 56.502 1.50492V2.93833H57.9365C58.1267 2.93833 58.3092 3.01384 58.4437 3.14825C58.5782 3.28266 58.6537 3.46496 58.6537 3.65504C58.6537 3.84512 58.5782 4.02742 58.4437 4.16183C58.3092 4.29624 58.1267 4.37175 57.9365 4.37175H56.502V5.80517C56.502 5.99525 56.4265 6.17755 56.292 6.31195C56.1574 6.44636 55.975 6.52187 55.7848 6.52187C55.5946 6.52187 55.4121 6.44636 55.2776 6.31195C55.1431 6.17755 55.0675 5.99525 55.0675 5.80517V4.37175H53.6331C53.4428 4.37175 53.2604 4.29624 53.1259 4.16183C52.9914 4.02742 52.9158 3.84512 52.9158 3.65504ZM62.2399 7.95529C62.2399 8.14537 62.1644 8.32767 62.0299 8.46208C61.8954 8.59649 61.7129 8.672 61.5227 8.672H60.8055V9.38871C60.8055 9.57879 60.7299 9.76109 60.5954 9.8955C60.4609 10.0299 60.2784 10.1054 60.0882 10.1054C59.898 10.1054 59.7156 10.0299 59.5811 9.8955C59.4465 9.76109 59.371 9.57879 59.371 9.38871V8.672H58.6537C58.4635 8.672 58.2811 8.59649 58.1466 8.46208C58.0121 8.32767 57.9365 8.14537 57.9365 7.95529C57.9365 7.76521 58.0121 7.58291 58.1466 7.4485C58.2811 7.31409 58.4635 7.23858 58.6537 7.23858H59.371V6.52187C59.371 6.33179 59.4465 6.14949 59.5811 6.01508C59.7156 5.88068 59.898 5.80517 60.0882 5.80517C60.2784 5.80517 60.4609 5.88068 60.5954 6.01508C60.7299 6.14949 60.8055 6.33179 60.8055 6.52187V7.23858H61.5227C61.7129 7.23858 61.8954 7.31409 62.0299 7.4485C62.1644 7.58291 62.2399 7.76521 62.2399 7.95529Z" fill="#01D0FE"/>
<path d="M351 108.299L346.372 106.597L344.669 101.969C344.568 101.696 344.386 101.459 344.146 101.292C343.907 101.125 343.622 101.036 343.33 101.036C343.038 101.036 342.753 101.125 342.513 101.292C342.274 101.459 342.091 101.696 341.99 101.969L340.285 106.591L335.654 108.293C335.38 108.394 335.144 108.577 334.977 108.816C334.81 109.055 334.72 109.34 334.72 109.632C334.72 109.924 334.81 110.209 334.977 110.448C335.144 110.687 335.38 110.87 335.654 110.97L340.279 112.683L341.982 117.308C342.083 117.582 342.265 117.818 342.505 117.985C342.744 118.152 343.029 118.241 343.322 118.241C343.614 118.241 343.899 118.152 344.138 117.985C344.378 117.818 344.56 117.582 344.661 117.308L346.364 112.684L350.995 110.982C351.269 110.881 351.506 110.699 351.673 110.459C351.84 110.22 351.929 109.935 351.929 109.644C351.929 109.352 351.84 109.067 351.673 108.828C351.506 108.588 351.269 108.406 350.995 108.305L351 108.299ZM345.872 111.339C345.678 111.411 345.502 111.523 345.356 111.669C345.21 111.815 345.098 111.991 345.027 112.184L343.323 116.795L341.623 112.181C341.552 111.988 341.44 111.813 341.295 111.668C341.149 111.523 340.974 111.411 340.782 111.339L336.168 109.637L340.782 107.935C340.974 107.864 341.149 107.752 341.295 107.607C341.44 107.461 341.552 107.287 341.623 107.094L343.327 102.484L345.03 107.094C345.101 107.288 345.214 107.463 345.36 107.609C345.506 107.755 345.682 107.868 345.876 107.939L350.489 109.641L345.872 111.339ZM346.196 100.32C346.196 100.13 346.271 99.9477 346.406 99.8133C346.54 99.6789 346.723 99.6034 346.913 99.6034H348.348V98.17C348.348 97.9799 348.423 97.7976 348.558 97.6632C348.692 97.5288 348.875 97.4532 349.065 97.4532C349.255 97.4532 349.437 97.5288 349.572 97.6632C349.706 97.7976 349.782 97.9799 349.782 98.17V99.6034H351.217C351.407 99.6034 351.589 99.6789 351.724 99.8133C351.858 99.9477 351.934 100.13 351.934 100.32C351.934 100.51 351.858 100.692 351.724 100.827C351.589 100.961 351.407 101.037 351.217 101.037H349.782V102.47C349.782 102.66 349.706 102.843 349.572 102.977C349.437 103.111 349.255 103.187 349.065 103.187C348.875 103.187 348.692 103.111 348.558 102.977C348.423 102.843 348.348 102.66 348.348 102.47V101.037H346.913C346.723 101.037 346.54 100.961 346.406 100.827C346.271 100.692 346.196 100.51 346.196 100.32ZM355.52 104.62C355.52 104.81 355.444 104.993 355.31 105.127C355.175 105.262 354.993 105.337 354.803 105.337H354.085V106.054C354.085 106.244 354.01 106.426 353.875 106.561C353.741 106.695 353.558 106.77 353.368 106.77C353.178 106.77 352.996 106.695 352.861 106.561C352.727 106.426 352.651 106.244 352.651 106.054V105.337H351.934C351.744 105.337 351.561 105.262 351.427 105.127C351.292 104.993 351.217 104.81 351.217 104.62C351.217 104.43 351.292 104.248 351.427 104.114C351.561 103.979 351.744 103.904 351.934 103.904H352.651V103.187C352.651 102.997 352.727 102.815 352.861 102.68C352.996 102.546 353.178 102.47 353.368 102.47C353.558 102.47 353.741 102.546 353.875 102.68C354.01 102.815 354.085 102.997 354.085 103.187V103.904H354.803C354.993 103.904 355.175 103.979 355.31 104.114C355.444 104.248 355.52 104.43 355.52 104.62Z" fill="#01D0FE"/>
<path d="M309.28 274.846L304.653 273.143L302.949 268.516C302.848 268.242 302.666 268.006 302.426 267.839C302.187 267.672 301.902 267.583 301.61 267.583C301.318 267.583 301.033 267.672 300.793 267.839C300.554 268.006 300.371 268.242 300.27 268.516L298.565 273.138L293.934 274.84C293.66 274.941 293.424 275.123 293.257 275.363C293.09 275.602 293 275.887 293 276.179C293 276.47 293.09 276.755 293.257 276.995C293.424 277.234 293.66 277.416 293.934 277.517L298.559 279.23L300.262 283.855C300.363 284.128 300.545 284.365 300.785 284.532C301.025 284.699 301.31 284.788 301.602 284.788C301.894 284.788 302.179 284.699 302.418 284.532C302.658 284.365 302.84 284.128 302.941 283.855L304.644 279.231L309.275 277.529C309.549 277.428 309.786 277.246 309.953 277.006C310.12 276.767 310.209 276.482 310.209 276.19C310.209 275.899 310.12 275.614 309.953 275.374C309.786 275.135 309.549 274.953 309.275 274.852L309.28 274.846ZM304.152 277.886C303.958 277.957 303.782 278.07 303.636 278.216C303.49 278.361 303.378 278.537 303.307 278.731L301.603 283.341L299.903 278.727C299.832 278.535 299.72 278.36 299.575 278.215C299.43 278.069 299.254 277.957 299.062 277.886L294.448 276.184L299.062 274.482C299.254 274.411 299.43 274.299 299.575 274.153C299.72 274.008 299.832 273.833 299.903 273.641L301.607 269.03L303.31 273.641C303.382 273.834 303.494 274.01 303.64 274.156C303.786 274.302 303.962 274.414 304.156 274.485L308.769 276.188L304.152 277.886ZM304.476 266.867C304.476 266.677 304.551 266.494 304.686 266.36C304.82 266.226 305.003 266.15 305.193 266.15H306.628V264.717C306.628 264.527 306.703 264.344 306.838 264.21C306.972 264.076 307.155 264 307.345 264C307.535 264 307.718 264.076 307.852 264.21C307.987 264.344 308.062 264.527 308.062 264.717V266.15H309.497C309.687 266.15 309.869 266.226 310.004 266.36C310.138 266.494 310.214 266.677 310.214 266.867C310.214 267.057 310.138 267.239 310.004 267.374C309.869 267.508 309.687 267.584 309.497 267.584H308.062V269.017C308.062 269.207 307.987 269.389 307.852 269.524C307.718 269.658 307.535 269.734 307.345 269.734C307.155 269.734 306.972 269.658 306.838 269.524C306.703 269.389 306.628 269.207 306.628 269.017V267.584H305.193C305.003 267.584 304.82 267.508 304.686 267.374C304.551 267.239 304.476 267.057 304.476 266.867ZM313.8 271.167C313.8 271.357 313.724 271.539 313.59 271.674C313.455 271.808 313.273 271.884 313.083 271.884H312.366V272.6C312.366 272.791 312.29 272.973 312.155 273.107C312.021 273.242 311.839 273.317 311.648 273.317C311.458 273.317 311.276 273.242 311.141 273.107C311.007 272.973 310.931 272.791 310.931 272.6V271.884H310.214C310.024 271.884 309.841 271.808 309.707 271.674C309.572 271.539 309.497 271.357 309.497 271.167C309.497 270.977 309.572 270.795 309.707 270.66C309.841 270.526 310.024 270.45 310.214 270.45H310.931V269.734C310.931 269.544 311.007 269.361 311.141 269.227C311.276 269.092 311.458 269.017 311.648 269.017C311.839 269.017 312.021 269.092 312.155 269.227C312.29 269.361 312.366 269.544 312.366 269.734V270.45H313.083C313.273 270.45 313.455 270.526 313.59 270.66C313.724 270.795 313.8 270.977 313.8 271.167Z" fill="#01D0FE"/>
<path d="M17.1596 174.821L12.5325 173.119L10.8291 168.491C10.7282 168.218 10.5457 167.981 10.3062 167.814C10.0666 167.647 9.78165 167.558 9.48962 167.558C9.1976 167.558 8.9126 167.647 8.67308 167.814C8.43357 167.981 8.25106 168.218 8.15018 168.491L6.44494 173.113L1.81427 174.816C1.54022 174.916 1.30371 175.099 1.13664 175.338C0.96958 175.577 0.880005 175.862 0.880005 176.154C0.880005 176.446 0.96958 176.731 1.13664 176.97C1.30371 177.209 1.54022 177.392 1.81427 177.492L6.43867 179.205L8.14211 183.83C8.24299 184.104 8.4255 184.34 8.66501 184.507C8.90453 184.674 9.18953 184.764 9.48156 184.764C9.77358 184.764 10.0586 184.674 10.2981 184.507C10.5376 184.34 10.7201 184.104 10.821 183.83L12.5244 179.206L17.1551 177.504C17.4292 177.403 17.6657 177.221 17.8327 176.982C17.9998 176.742 18.0894 176.457 18.0894 176.166C18.0894 175.874 17.9998 175.589 17.8327 175.35C17.6657 175.11 17.4292 174.928 17.1551 174.827L17.1596 174.821ZM12.0322 177.862C11.8384 177.933 11.6624 178.045 11.5164 178.191C11.3704 178.337 11.2579 178.513 11.1868 178.706L9.48335 183.317L7.78349 178.703C7.7123 178.51 7.60018 178.335 7.45485 178.19C7.30952 178.045 7.13443 177.933 6.94163 177.862L2.32799 176.159L6.94163 174.457C7.13443 174.386 7.30952 174.274 7.45485 174.129C7.60018 173.984 7.7123 173.809 7.78349 173.616L9.48694 169.006L11.1904 173.616C11.2615 173.81 11.374 173.986 11.52 174.131C11.666 174.277 11.842 174.39 12.0358 174.461L16.6495 176.163L12.0322 177.862ZM12.3559 166.842C12.3559 166.652 12.4315 166.47 12.566 166.335C12.7005 166.201 12.8829 166.125 13.0731 166.125H14.5076V164.692C14.5076 164.502 14.5832 164.32 14.7177 164.185C14.8522 164.051 15.0346 163.975 15.2249 163.975C15.4151 163.975 15.5975 164.051 15.732 164.185C15.8665 164.32 15.9421 164.502 15.9421 164.692V166.125H17.3766C17.5668 166.125 17.7492 166.201 17.8837 166.335C18.0182 166.47 18.0938 166.652 18.0938 166.842C18.0938 167.032 18.0182 167.215 17.8837 167.349C17.7492 167.483 17.5668 167.559 17.3766 167.559H15.9421V168.992C15.9421 169.182 15.8665 169.365 15.732 169.499C15.5975 169.633 15.4151 169.709 15.2249 169.709C15.0346 169.709 14.8522 169.633 14.7177 169.499C14.5832 169.365 14.5076 169.182 14.5076 168.992V167.559H13.0731C12.8829 167.559 12.7005 167.483 12.566 167.349C12.4315 167.215 12.3559 167.032 12.3559 166.842ZM21.68 171.142C21.68 171.333 21.6044 171.515 21.4699 171.649C21.3354 171.784 21.153 171.859 20.9628 171.859H20.2455V172.576C20.2455 172.766 20.17 172.948 20.0355 173.083C19.9009 173.217 19.7185 173.293 19.5283 173.293C19.3381 173.293 19.1556 173.217 19.0211 173.083C18.8866 172.948 18.811 172.766 18.811 172.576V171.859H18.0938C17.9036 171.859 17.7212 171.784 17.5866 171.649C17.4521 171.515 17.3766 171.333 17.3766 171.142C17.3766 170.952 17.4521 170.77 17.5866 170.636C17.7212 170.501 17.9036 170.426 18.0938 170.426H18.811V169.709C18.811 169.519 18.8866 169.337 19.0211 169.202C19.1556 169.068 19.3381 168.992 19.5283 168.992C19.7185 168.992 19.9009 169.068 20.0355 169.202C20.17 169.337 20.2455 169.519 20.2455 169.709V170.426H20.9628C21.153 170.426 21.3354 170.501 21.4699 170.636C21.6044 170.77 21.68 170.952 21.68 171.142Z" fill="#01D0FE"/>
</svg>
