<svg width="288" height="350" viewBox="0 0 288 350" fill="none" xmlns="http://www.w3.org/2000/svg">
<mask id="mask0_156_219" style="mask-type:alpha" maskUnits="userSpaceOnUse" x="-117" y="-24" width="397" height="369">
<path d="M18.6509 196.208C-109.828 41.2123 -54.1123 -53.032 143.38 -14.1234C340.872 24.7852 319.762 64.5364 96.4289 74.5832C-126.905 84.6301 -182.772 178.879 -28.3002 284.914C126.171 390.95 147.13 351.203 18.6509 196.208Z" stroke="#404040" stroke-width="1.20324" stroke-miterlimit="10"/>
<path d="M21.9773 190.823C-81.1619 55.2246 -30.2023 -30.7219 135.733 -1.05759C301.669 28.6067 282.577 64.8238 92.9474 79.8214C-96.6821 94.8189 -147.642 180.765 -20.8088 271.701C106.024 362.638 125.121 326.571 21.9773 190.823Z" stroke="#404040" stroke-width="1.20324" stroke-miterlimit="10"/>
<path d="M25.4589 185.584C-55.0935 68.2515 -9.04154 -9.39292 128.242 12.155C265.526 33.703 248.304 66.5414 89.4741 85.3616C-69.3558 104.182 -115.257 181.822 -13.309 258.791C88.6386 335.759 106.011 302.917 25.4589 185.584Z" stroke="#404040" stroke-width="1.20324" stroke-miterlimit="10"/>
<path d="M28.7855 180.199C-31.7823 79.9952 9.35777 10.5018 120.747 25.2168C232.132 39.7807 216.625 69.0935 86.1437 90.5957C-44.3377 112.098 -85.482 181.44 -5.81755 245.578C73.8469 309.716 89.5044 280.399 28.7855 180.199Z" stroke="#404040" stroke-width="1.20324" stroke-miterlimit="10"/>
<path d="M32.267 174.961C-11.0695 90.7534 25.163 29.5621 113.255 38.4295C201.348 47.297 187.703 72.929 82.8172 95.9808C-22.069 119.033 -58.4526 180.228 1.82888 232.512C62.1103 284.796 75.5991 259.017 32.267 174.961Z" stroke="#404040" stroke-width="1.20324" stroke-miterlimit="10"/>
<path d="M35.5928 169.576C6.73875 100.383 38.0636 47.4943 105.608 51.4954C173.153 55.4965 161.379 77.7498 79.1883 101.374C-3.00712 124.848 -34.332 177.737 9.17287 219.455C52.6777 261.172 64.4469 238.768 35.5928 169.576Z" stroke="#404040" stroke-width="1.20324" stroke-miterlimit="10"/>
<path d="M39.0707 164.187C21.9415 108.726 48.5098 64.1348 98.2642 64.5529C148.019 64.971 137.961 83.6987 75.8582 106.608C13.7557 129.518 -12.6616 174.105 16.6646 206.242C45.9908 238.379 56.0489 219.651 39.0707 164.187Z" stroke="#404040" stroke-width="1.20324" stroke-miterlimit="10"/>
<path d="M42.4013 158.953C34.399 116.239 56.0555 79.7984 90.6176 77.619C125.18 75.4396 116.992 90.7885 72.5276 111.842C27.9116 132.901 6.40623 169.337 24.3113 193.176C42.2163 217.016 50.4036 201.667 42.4013 158.953Z" stroke="#404040" stroke-width="1.20324" stroke-miterlimit="10"/>
<path d="M45.8788 153.563C44.4012 122.459 60.999 94.3251 83.1222 90.6805C105.25 87.1869 98.9287 99.0061 69.0503 117.232C39.1718 135.457 22.574 163.591 31.8069 180.114C41.0398 196.638 47.3564 184.667 45.8788 153.563Z" stroke="#404040" stroke-width="1.20324" stroke-miterlimit="10"/>
<path d="M49.2093 148.329C51.3521 127.707 63.1891 107.72 75.4797 103.897C87.7703 100.075 83.467 108.36 65.5727 122.621C47.6785 136.882 35.9883 156.713 39.3023 167.053C42.6163 177.392 47.0665 168.952 49.2093 148.329Z" stroke="#404040" stroke-width="1.20324" stroke-miterlimit="10"/>
<path d="M52.6868 142.94C55.8478 131.663 62.7772 119.978 68.1353 116.955C73.4935 113.932 70.9098 118.842 62.3933 127.851C53.8769 136.859 46.9475 148.544 46.9448 153.835C46.9421 159.127 49.5258 154.217 52.6868 142.94Z" stroke="#404040" stroke-width="1.20324" stroke-miterlimit="10"/>
</mask>
<g mask="url(#mask0_156_219)">
<g opacity="0.3">
<rect x="296" y="441" width="638" height="595" transform="rotate(180 296 441)" fill="url(#paint0_linear_156_219)"/>
<rect x="296" y="441" width="638" height="595" transform="rotate(180 296 441)" fill="url(#paint1_linear_156_219)"/>
</g>
</g>
<defs>
<linearGradient id="paint0_linear_156_219" x1="534.64" y1="615.147" x2="625.211" y2="860.149" gradientUnits="userSpaceOnUse">
<stop stop-color="white"/>
<stop offset="1" stop-color="#0091B2"/>
</linearGradient>
<linearGradient id="paint1_linear_156_219" x1="546.62" y1="659.989" x2="626.8" y2="859.88" gradientUnits="userSpaceOnUse">
<stop stop-color="white"/>
<stop offset="1" stop-color="#005265"/>
</linearGradient>
</defs>
</svg>
