<svg width="21" height="21" viewBox="0 0 21 21" fill="none" xmlns="http://www.w3.org/2000/svg">
<path d="M13.7419 2.42285C13.7019 2.67284 13.6814 2.92286 13.6814 3.17285C13.6814 5.42285 15.5019 7.24219 17.7419 7.24219C17.9919 7.24217 18.2322 7.21284 18.4822 7.17285V15.2422C18.4821 18.633 16.4817 20.6426 13.0818 20.6426H5.69312C2.29222 20.6426 0.29187 18.633 0.291748 15.2422V7.84277C0.291789 4.44284 2.29215 2.42285 5.69312 2.42285H13.7419ZM13.9431 8.50293C13.6723 8.47295 13.403 8.59272 13.2419 8.8125L10.823 11.9434L8.05151 9.7627C7.88169 9.63293 7.68193 9.58168 7.48218 9.60254C7.28318 9.63254 7.10318 9.74234 6.98218 9.90234L4.02319 13.7529L3.96167 13.8428C3.79168 14.1618 3.87166 14.572 4.17163 14.793C4.31159 14.8829 4.46166 14.9433 4.63159 14.9434C4.86259 14.9534 5.08144 14.8316 5.22144 14.6426L7.73218 11.4121L10.5818 13.5527L10.6716 13.6123C10.9915 13.7822 11.3918 13.7031 11.6218 13.4023L14.5115 9.67285L14.4714 9.69336C14.6314 9.47345 14.6613 9.19328 14.5515 8.94336C14.4426 8.69348 14.202 8.52306 13.9431 8.50293ZM17.8816 0.642578C19.2116 0.642578 20.2917 1.72273 20.2917 3.05273C20.2917 4.38266 19.2115 5.46289 17.8816 5.46289C16.5518 5.46275 15.4715 4.38258 15.4714 3.05273C15.4714 1.72282 16.5517 0.642717 17.8816 0.642578Z" fill="black" fill-opacity="0.4"/>
</svg>
