<svg width="25" height="25" viewBox="0 0 25 25" fill="none" xmlns="http://www.w3.org/2000/svg">
<path d="M15.7419 4.42285C15.7019 4.67284 15.6814 4.92286 15.6814 5.17285C15.6814 7.42285 17.5019 9.24219 19.7419 9.24219C19.9919 9.24217 20.2322 9.21284 20.4822 9.17285V17.2422C20.4821 20.633 18.4817 22.6426 15.0818 22.6426H7.69312C4.29222 22.6426 2.29187 20.633 2.29175 17.2422V9.84277C2.29179 6.44284 4.29215 4.42285 7.69312 4.42285H15.7419ZM15.9431 10.5029C15.6723 10.4729 15.403 10.5927 15.2419 10.8125L12.823 13.9434L10.0515 11.7627C9.88169 11.6329 9.68193 11.5817 9.48218 11.6025C9.28318 11.6325 9.10318 11.7423 8.98218 11.9023L6.02319 15.7529L5.96167 15.8428C5.79168 16.1618 5.87166 16.572 6.17163 16.793C6.31159 16.8829 6.46166 16.9433 6.63159 16.9434C6.86259 16.9534 7.08144 16.8316 7.22144 16.6426L9.73218 13.4121L12.5818 15.5527L12.6716 15.6123C12.9915 15.7822 13.3918 15.7031 13.6218 15.4023L16.5115 11.6729L16.4714 11.6934C16.6314 11.4735 16.6613 11.1933 16.5515 10.9434C16.4426 10.6935 16.202 10.5231 15.9431 10.5029ZM19.8816 2.64258C21.2116 2.64258 22.2917 3.72273 22.2917 5.05273C22.2917 6.38266 21.2115 7.46289 19.8816 7.46289C18.5518 7.46275 17.4715 6.38258 17.4714 5.05273C17.4714 3.72282 18.5517 2.64272 19.8816 2.64258Z" fill="black" fill-opacity="0.4"/>
</svg>
