<svg width="25" height="25" viewBox="0 0 25 25" fill="none" xmlns="http://www.w3.org/2000/svg">
<path d="M21.292 9.89966V17.5735C21.292 20.7125 19.3157 22.6428 16.1543 22.6428H8.41895C5.28753 22.6427 3.29211 20.6726 3.29199 17.5129V9.89966H21.292ZM16.333 17.0334C15.8786 17.0434 15.5126 17.4231 15.5225 17.8831C15.5227 18.3429 15.8885 18.7227 16.3428 18.7327C16.8068 18.7325 17.1824 18.3528 17.1826 17.8831C17.1826 17.4142 16.807 17.0336 16.3428 17.0334H16.333ZM8.20215 17.0227C7.7477 17.0437 7.3916 17.4231 7.3916 17.8831C7.41155 18.3428 7.78702 18.7037 8.24121 18.6829C8.68578 18.6639 9.04124 18.2835 9.02148 17.8235C9.01151 17.3736 8.64658 17.0228 8.20215 17.0227ZM12.2725 17.0227C11.818 17.0437 11.4619 17.4231 11.4619 17.8831C11.4819 18.3428 11.8573 18.7037 12.3115 18.6829C12.7561 18.6639 13.1116 18.2835 13.0918 17.8235C13.0818 17.3736 12.7169 17.0228 12.2725 17.0227ZM8.21191 13.3928C7.75763 13.4138 7.40162 13.7934 7.40137 14.2532C7.42112 14.712 7.79672 15.0737 8.25098 15.053C8.69554 15.034 9.05199 14.6536 9.03223 14.1926C9.02234 13.7437 8.65645 13.3929 8.21191 13.3928ZM12.2725 13.3928C11.8182 13.4138 11.4622 13.7934 11.4619 14.2532C11.4817 14.7121 11.8572 15.0738 12.3115 15.053C12.7561 15.034 13.1116 14.6536 13.0918 14.1926C13.0819 13.7437 12.7169 13.3929 12.2725 13.3928ZM16.3428 13.4036C15.8884 13.4136 15.5324 13.7835 15.5322 14.2434V14.2532C15.5421 14.7122 15.9177 15.0629 16.3721 15.053C16.8166 15.044 17.172 14.6634 17.1621 14.2034C17.1422 13.7626 16.7871 13.4037 16.3428 13.4036Z" fill="black" fill-opacity="0.5"/>
<path opacity="0.4" d="M3.29541 9.89957C3.30825 9.31257 3.35765 8.14757 3.45051 7.77257C3.92472 5.66357 5.53504 4.32357 7.8369 4.13257H16.748C19.0301 4.33357 20.6602 5.68257 21.1344 7.77257C21.2263 8.13757 21.2757 9.31157 21.2885 9.89957H3.29541Z" fill="black" fill-opacity="0.5"/>
<path d="M8.59688 7.23258C9.03157 7.23258 9.35759 6.90358 9.35759 6.46258V3.41358C9.35759 2.97258 9.03157 2.64258 8.59688 2.64258C8.1622 2.64258 7.83618 2.97258 7.83618 3.41358V6.46258C7.83618 6.90358 8.1622 7.23258 8.59688 7.23258Z" fill="black" fill-opacity="0.5"/>
<path d="M15.987 7.23258C16.4118 7.23258 16.7477 6.90358 16.7477 6.46258V3.41358C16.7477 2.97258 16.4118 2.64258 15.987 2.64258C15.5523 2.64258 15.2263 2.97258 15.2263 3.41358V6.46258C15.2263 6.90358 15.5523 7.23258 15.987 7.23258Z" fill="black" fill-opacity="0.5"/>
</svg>
