<svg fill="none" height="17" viewBox="0 0 17 17" width="17" xmlns="http://www.w3.org/2000/svg">
    <path
        d="M11.316 2.8352V1.81793C11.316 1.55057 11.0943 1.32886 10.827 1.32886C10.5596 1.32886 10.3379 1.55057 10.3379 1.81793V2.79607H6.09928V1.81793C6.09928 1.55057 5.87757 1.32886 5.61021 1.32886C5.34285 1.32886 5.12114 1.55057 5.12114 1.81793V2.8352C3.36048 2.99822 2.50624 4.04809 2.37582 5.6066C2.36278 5.79571 2.51928 5.95221 2.70187 5.95221H13.7353C13.9244 5.95221 14.0809 5.78919 14.0614 5.6066C13.9309 4.04809 13.0767 2.99822 11.316 2.8352Z"
        fill="#D0D5DD" />
    <path
        d="M13.4353 6.93018H3.00183C2.64317 6.93018 2.34973 7.22362 2.34973 7.58227V11.5992C2.34973 13.5555 3.32787 14.8596 5.61021 14.8596H10.827C13.1093 14.8596 14.0874 13.5555 14.0874 11.5992V7.58227C14.0874 7.22362 13.794 6.93018 13.4353 6.93018ZM6.39924 12.3882C6.33403 12.4469 6.2623 12.4925 6.18405 12.5251C6.1058 12.5578 6.02103 12.5773 5.93625 12.5773C5.85148 12.5773 5.76671 12.5578 5.68846 12.5251C5.61021 12.4925 5.53847 12.4469 5.47327 12.3882C5.35589 12.2643 5.28416 12.0948 5.28416 11.9252C5.28416 11.7557 5.35589 11.5861 5.47327 11.4622C5.53847 11.4035 5.61021 11.3579 5.68846 11.3253C5.84496 11.2601 6.02755 11.2601 6.18405 11.3253C6.2623 11.3579 6.33403 11.4035 6.39924 11.4622C6.51662 11.5861 6.58835 11.7557 6.58835 11.9252C6.58835 12.0948 6.51662 12.2643 6.39924 12.3882ZM6.53618 9.89069C6.50358 9.96894 6.45793 10.0407 6.39924 10.1059C6.33403 10.1646 6.2623 10.2102 6.18405 10.2428C6.1058 10.2754 6.02103 10.295 5.93625 10.295C5.85148 10.295 5.76671 10.2754 5.68846 10.2428C5.61021 10.2102 5.53847 10.1646 5.47327 10.1059C5.41458 10.0407 5.36893 9.96894 5.33633 9.89069C5.30372 9.81243 5.28416 9.72766 5.28416 9.64289C5.28416 9.55812 5.30372 9.47335 5.33633 9.39509C5.36893 9.31684 5.41458 9.24511 5.47327 9.1799C5.53847 9.12121 5.61021 9.07557 5.68846 9.04296C5.84496 8.97775 6.02755 8.97775 6.18405 9.04296C6.2623 9.07557 6.33403 9.12121 6.39924 9.1799C6.45793 9.24511 6.50358 9.31684 6.53618 9.39509C6.56878 9.47335 6.58835 9.55812 6.58835 9.64289C6.58835 9.72766 6.56878 9.81243 6.53618 9.89069ZM8.68157 10.1059C8.61636 10.1646 8.54463 10.2102 8.46638 10.2428C8.38813 10.2754 8.30336 10.295 8.21858 10.295C8.13381 10.295 8.04904 10.2754 7.97079 10.2428C7.89254 10.2102 7.82081 10.1646 7.7556 10.1059C7.63822 9.98198 7.56649 9.81243 7.56649 9.64289C7.56649 9.47335 7.63822 9.3038 7.7556 9.1799C7.82081 9.12121 7.89254 9.07557 7.97079 9.04296C8.12729 8.97123 8.30988 8.97123 8.46638 9.04296C8.54463 9.07557 8.61636 9.12121 8.68157 9.1799C8.79895 9.3038 8.87068 9.47335 8.87068 9.64289C8.87068 9.81243 8.79895 9.98198 8.68157 10.1059Z"
        fill="#D0D5DD" />
</svg>
