<svg fill="none" height="24" viewBox="0 0 24 24" width="24" xmlns="http://www.w3.org/2000/svg">
    <path clip-rule="evenodd" d="M2 8.34233C2 6.96573 2.93689 5.76578 4.27239 5.4319L6 5L7.40627 2.8906C7.7772 2.3342 8.40166 2 9.07037 2H14.9296C15.5983 2 16.2228 2.3342 16.5937 2.8906L18 5L19.7276 5.4319C21.0631 5.76578 22 6.96573 22 8.34233V19C22 20.6569 20.6569 22 19 22H5C3.34315 22 2 20.6569 2 19V8.34233Z"
        fill="white"
        fill-rule="evenodd" />
    <path
        d="M12 9C14.2091 9 16 10.7909 16 13C16 15.2091 14.2091 17 12 17C9.79086 17 8 15.2091 8 13C8 10.7909 9.79086 9 12 9ZM18 8C18.5523 8 19 8.44772 19 9C19 9.55228 18.5523 10 18 10C17.4477 10 17 9.55228 17 9C17 8.44772 17.4477 8 18 8Z"
        fill="#00ACD2" />
</svg>
