<svg width="18" height="16" viewBox="0 0 18 16" fill="none" xmlns="http://www.w3.org/2000/svg">
<path d="M17.71 10.0498C17.71 10.2222 17.6415 10.3875 17.5196 10.5094C17.3977 10.6313 17.2324 10.6998 17.06 10.6998H15.76V11.9998C15.76 12.1722 15.6915 12.3375 15.5696 12.4594C15.4477 12.5813 15.2824 12.6498 15.11 12.6498C14.9376 12.6498 14.7723 12.5813 14.6504 12.4594C14.5285 12.3375 14.46 12.1722 14.46 11.9998V10.6998H13.16C12.9876 10.6998 12.8223 10.6313 12.7004 10.5094C12.5785 10.3875 12.51 10.2222 12.51 10.0498C12.51 9.87741 12.5785 9.71208 12.7004 9.59019C12.8223 9.46829 12.9876 9.39981 13.16 9.39981H14.46V8.0998C14.46 7.92741 14.5285 7.76208 14.6504 7.64019C14.7723 7.51829 14.9376 7.44981 15.11 7.44981C15.2824 7.44981 15.4477 7.51829 15.5696 7.64019C15.6915 7.76208 15.76 7.92741 15.76 8.0998V9.39981H17.06C17.2324 9.39981 17.3977 9.46829 17.5196 9.59019C17.6415 9.71208 17.71 9.87741 17.71 10.0498ZM2.11002 3.5498H3.41002V4.8498C3.41002 5.0222 3.47851 5.18753 3.60041 5.30942C3.7223 5.43132 3.88763 5.4998 4.06002 5.4998C4.23242 5.4998 4.39775 5.43132 4.51964 5.30942C4.64154 5.18753 4.71002 5.0222 4.71002 4.8498V3.5498H6.01003C6.18242 3.5498 6.34775 3.48132 6.46964 3.35942C6.59154 3.23753 6.66003 3.0722 6.66003 2.8998C6.66003 2.72741 6.59154 2.56208 6.46964 2.44019C6.34775 2.31829 6.18242 2.2498 6.01003 2.2498H4.71002V0.949805C4.71002 0.777414 4.64154 0.612084 4.51964 0.490185C4.39775 0.368287 4.23242 0.299805 4.06002 0.299805C3.88763 0.299805 3.7223 0.368287 3.60041 0.490185C3.47851 0.612084 3.41002 0.777414 3.41002 0.949805V2.2498H2.11002C1.93763 2.2498 1.7723 2.31829 1.65041 2.44019C1.52851 2.56208 1.46002 2.72741 1.46002 2.8998C1.46002 3.0722 1.52851 3.23753 1.65041 3.35942C1.7723 3.48132 1.93763 3.5498 2.11002 3.5498ZM12.51 13.2998H11.86V12.6498C11.86 12.4774 11.7915 12.3121 11.6696 12.1902C11.5477 12.0683 11.3824 11.9998 11.21 11.9998C11.0376 11.9998 10.8723 12.0683 10.7504 12.1902C10.6285 12.3121 10.56 12.4774 10.56 12.6498V13.2998H9.91003C9.73763 13.2998 9.5723 13.3683 9.45041 13.4902C9.32851 13.6121 9.26003 13.7774 9.26003 13.9498C9.26003 14.1222 9.32851 14.2875 9.45041 14.4094C9.5723 14.5313 9.73763 14.5998 9.91003 14.5998H10.56V15.2498C10.56 15.4222 10.6285 15.5875 10.7504 15.7094C10.8723 15.8313 11.0376 15.8998 11.21 15.8998C11.3824 15.8998 11.5477 15.8313 11.6696 15.7094C11.7915 15.5875 11.86 15.4222 11.86 15.2498V14.5998H12.51C12.6824 14.5998 12.8477 14.5313 12.9696 14.4094C13.0915 14.2875 13.16 14.1222 13.16 13.9498C13.16 13.7774 13.0915 13.6121 12.9696 13.4902C12.8477 13.3683 12.6824 13.2998 12.51 13.2998ZM15.379 4.1998L4.06002 15.5187C3.81625 15.7624 3.48572 15.8992 3.14109 15.8992C2.79645 15.8992 2.46592 15.7624 2.22215 15.5187L0.540275 13.8385C0.419527 13.7178 0.323743 13.5744 0.258394 13.4167C0.193044 13.259 0.159409 13.0899 0.159409 12.9191C0.159409 12.7484 0.193044 12.5793 0.258394 12.4216C0.323743 12.2638 0.419527 12.1205 0.540275 11.9998L11.86 0.680867C11.9807 0.560119 12.1241 0.464336 12.2818 0.398986C12.4396 0.333637 12.6086 0.300001 12.7794 0.300001C12.9501 0.300001 13.1192 0.333637 13.2769 0.398986C13.4347 0.464336 13.578 0.560119 13.6987 0.680867L15.379 2.36112C15.4997 2.48184 15.5955 2.62516 15.6608 2.7829C15.7262 2.94065 15.7598 3.10972 15.7598 3.28046C15.7598 3.4512 15.7262 3.62028 15.6608 3.77802C15.5955 3.93576 15.4997 4.07908 15.379 4.1998ZM14.46 3.28087L12.779 1.5998L10.179 4.1998L11.86 5.88087L14.46 3.28087Z" fill="#01D0FE"/>
</svg>
