<svg width="25" height="25" viewBox="0 0 25 25" fill="none" xmlns="http://www.w3.org/2000/svg">
<path d="M14.6348 16.3896C14.9374 16.3908 15.1826 16.6444 15.1826 16.9551V19.6865C15.1825 19.9981 15.0052 20.2797 14.7295 20.4102L10.3223 22.4795C10.2195 22.5271 10.1108 22.5507 10.002 22.5508C9.85695 22.5508 9.7115 22.5084 9.58496 22.4248C9.3636 22.2784 9.22949 22.0253 9.22949 21.7549V16.9404C9.22949 16.6276 9.47654 16.3739 9.78027 16.375L14.6348 16.3896ZM20.3721 2.55078C21.5478 2.55092 22.5 3.53205 22.5 4.74316V6.27441C22.5 6.86198 22.27 7.42638 21.8623 7.83789L15.3574 14.418C15.2452 14.5324 15.093 14.5958 14.9355 14.5947L9.48926 14.5781C9.32357 14.5781 9.16598 14.5068 9.05273 14.3828L3.07422 7.80859C2.70462 7.40241 2.50003 6.86537 2.5 6.30859V4.74414C2.5 3.53303 3.45224 2.55092 4.62793 2.55078H20.3721Z" fill="white"/>
</svg>
