<svg width="28" height="26" viewBox="0 0 28 26" fill="none" xmlns="http://www.w3.org/2000/svg">
    <path
        d="M27.6 2.15568C27.4399 1.78585 27.1747 1.47123 26.8372 1.25095C26.4997 1.03068 26.105 0.914471 25.702 0.916782H2.822C2.41943 0.917575 2.02574 1.03517 1.68869 1.25531C1.35164 1.47545 1.08571 1.78866 0.923174 2.15696C0.760633 2.52526 0.708462 2.93281 0.772988 3.33017C0.837515 3.72754 1.01597 4.09764 1.2867 4.39558L1.2971 4.40728L10.102 13.8089V23.7968C10.1019 24.1732 10.204 24.5427 10.3973 24.8656C10.5907 25.1886 10.8681 25.4531 11.2 25.6308C11.5318 25.8086 11.9057 25.8929 12.2817 25.8749C12.6577 25.8568 13.0218 25.7371 13.3351 25.5284L17.4951 22.7542C17.7803 22.5642 18.0141 22.3068 18.1758 22.0047C18.3375 21.7026 18.4221 21.3652 18.422 21.0226V13.8089L27.2282 4.40728L27.2386 4.39558C27.5122 4.099 27.6924 3.72841 27.7566 3.33006C27.8209 2.93171 27.7664 2.52326 27.6 2.15568ZM16.9062 12.3932C16.5449 12.7761 16.3431 13.2824 16.342 13.8089V21.0226L12.182 23.7968V13.8089C12.1832 13.2805 11.9823 12.7717 11.6204 12.3867L2.822 2.99678H25.702L16.9062 12.3932Z"
        fill="white" />
</svg>
