<svg width="23" height="22" viewBox="0 0 23 22" fill="none" xmlns="http://www.w3.org/2000/svg">
<path d="M20.4359 4.37337C20.3307 4.13037 20.1564 3.92365 19.9347 3.77892C19.713 3.63418 19.4536 3.55783 19.1888 3.55935H4.15548C3.89097 3.55987 3.6323 3.63714 3.41084 3.78178C3.18938 3.92642 3.01465 4.13222 2.90785 4.37421C2.80106 4.6162 2.76678 4.88398 2.80918 5.14507C2.85157 5.40616 2.96882 5.64934 3.14671 5.8451L3.15354 5.85279L8.93881 12.0301V18.5927C8.93875 18.84 9.00583 19.0828 9.13287 19.295C9.25992 19.5072 9.44219 19.681 9.66023 19.7978C9.87827 19.9145 10.1239 19.97 10.371 19.9581C10.6181 19.9462 10.8573 19.8676 11.0631 19.7304L13.7965 17.9076C13.9838 17.7828 14.1375 17.6137 14.2437 17.4152C14.35 17.2167 14.4055 16.995 14.4055 16.7699V12.0301L20.1916 5.85279L20.1984 5.8451C20.3782 5.65023 20.4966 5.40673 20.5388 5.145C20.581 4.88326 20.5452 4.61489 20.4359 4.37337ZM13.4095 11.0999C13.1721 11.3516 13.0396 11.6842 13.0388 12.0301V16.7699L10.3055 18.5927V12.0301C10.3063 11.683 10.1743 11.3486 9.93648 11.0957L4.15548 4.92602H19.1888L13.4095 11.0999Z" fill="white"/>
</svg>
