<svg width="26" height="26" viewBox="0 0 26 26" fill="none" xmlns="http://www.w3.org/2000/svg">
<path fill-rule="evenodd" clip-rule="evenodd" d="M9.79101 21.7415V18.5603C9.79099 17.7511 10.4506 17.0936 11.268 17.0882H14.2618C15.083 17.0882 15.7487 17.7473 15.7487 18.5603V21.7514C15.7485 22.4384 16.3024 22.9999 16.9961 23.016H18.992C20.9817 23.016 22.5946 21.4192 22.5946 19.4494V10.3997C22.584 9.62484 22.2165 8.89717 21.5966 8.42382L14.7707 2.98017C13.5749 2.03233 11.875 2.03233 10.6792 2.98017L3.88319 8.4337C3.26104 8.90513 2.89292 9.63401 2.88525 10.4096V19.4494C2.88525 21.4192 4.49818 23.016 6.48782 23.016H8.4837C9.19468 23.016 9.77105 22.4454 9.77105 21.7415" fill="black" fill-opacity="0.5"/>
</svg>
