<svg fill="none" height="22" viewBox="0 0 21 22" width="21" xmlns="http://www.w3.org/2000/svg">
    <path clip-rule="evenodd" d="M7.68712 19.7412V16.56C7.68711 15.7509 8.34677 15.0934 9.16408 15.088H12.1579C12.9791 15.088 13.6448 15.747 13.6448 16.56V19.7511C13.6446 20.4381 14.1985 20.9996 14.8923 21.0157H16.8881C18.8778 21.0157 20.4907 19.4189 20.4907 17.4492V8.39949C20.4801 7.62459 20.1126 6.89693 19.4928 6.42357L12.6668 0.979929C11.471 0.0320811 9.77112 0.0320811 8.57529 0.979929L1.77931 6.43345C1.15716 6.90489 0.789035 7.63376 0.781372 8.40937V17.4492C0.781372 19.4189 2.3943 21.0157 4.38394 21.0157H6.37982C7.0908 21.0157 7.66716 20.4451 7.66716 19.7412"
        fill="black"
        fill-opacity="0.2" fill-rule="evenodd" />
</svg>
