<svg width="159" height="147" viewBox="0 0 159 147" fill="none" xmlns="http://www.w3.org/2000/svg">
<g clip-path="url(#clip0_11_322)">
<path d="M56.6266 64.9897L65.6956 51.5113C70.4646 46.0869 79.2535 44.4377 85.9111 46.9102C93.5361 49.7402 97.1276 58.4712 101.7 64.6024C102.36 65.5719 102.861 64.8082 103.395 64.207C108.411 58.5471 110.284 50.6474 118.108 47.3273C138.806 38.5421 146.881 66.3275 157.047 78.2893C160.417 85.3982 156.667 94.5543 148.872 96.3471C136.276 99.2421 132.45 86.1781 126.466 78.1566C125.647 77.2115 125.017 78.2162 124.456 78.8661C118.189 86.17 116.845 94.6735 105.496 96.6234C92.0973 98.928 86.027 87.6974 79.8058 78.2027L79.1673 77.7423C78.7146 77.7423 78.1326 78.7524 77.8443 79.137C71.5881 87.5078 67.7379 97.8691 54.9238 96.9646C42.5433 96.0899 40.6196 86.4245 34.1505 78.8661C33.3746 77.9589 33.0432 77.2494 32.0355 78.3191C29.096 81.4443 26.3127 87.6107 23.3759 91.2667C13.1402 104.003 -4.96024 92.4799 1.75939 77.9481C7.19384 70.3518 11.89 61.9241 17.3838 54.409C22.2416 47.7633 28.0748 44.6896 36.5269 46.1817C46.8273 48.0016 49.8881 57.3338 55.4653 64.7703L56.6266 64.9951V64.9897Z" fill="#01D0FE"/>
<path d="M14.1021 123.48H37.5427V114.957C37.5427 113.89 41.0453 113.89 41.0453 114.957V123.48H45.7604C48.4466 123.48 45.2781 115.318 48.743 115.096C52.286 114.868 48.945 122.938 51.6959 123.474C55.7509 124.265 53.7005 117.644 54.3014 115.553C54.6839 114.232 57.2921 113.939 57.6962 115.277C58.1866 116.902 57.1951 121.622 58.0357 122.784C59.3424 123.61 61.7889 124.103 62.0718 122.004C62.317 120.19 61.0533 114.581 62.1796 113.452C63.3058 112.322 65.049 113.224 65.278 114.7C65.6849 117.316 65.1702 120.864 64.7553 123.477H72.973C73.2155 123.041 74.9776 123.155 74.7216 122.535C74.172 121.208 69.4057 119.935 69.1093 118.96C68.7402 117.747 71.0897 115.445 72.0542 114.708C74.1154 113.135 75.9583 112.563 78.491 113.341C83.3138 114.819 83.8554 119.938 79.8462 122.806L80.2504 123.477H87.3903V108.731C87.3903 108.157 88.5731 107.356 89.182 107.323C90.7609 107.242 90.9926 108.577 91.1273 109.847C91.4722 113.138 91.5477 121.192 91.1678 124.428C91.0842 125.135 90.6181 126.183 89.8933 126.394C88.9961 126.657 81.4763 126.594 80.2746 126.426C79.073 126.258 77.8901 125.573 77.2947 124.585C76.6103 124.937 75.7913 125.357 75.0557 125.562C71.669 126.508 62.0933 126.575 58.4264 126.18C57.1708 126.044 56.252 125.525 55.4626 124.56C54.1262 126.109 52.057 126.911 50.0605 126.193C49.5513 126.009 48.6783 125.197 48.4547 125.183C48.1367 125.167 45.9085 126.854 44.9628 126.459L14.2583 126.434C13.283 130.843 10.8554 133.375 6.14305 132.953C0.439174 132.441 -0.867572 125.985 0.498449 121.303C0.837934 120.143 1.43068 119.818 2.6566 119.93C5.01413 120.143 3.58345 123.802 3.62117 125.47C3.74241 130.665 10.2411 131.845 10.8635 124.953C11.3539 119.523 10.4701 113.457 10.912 107.957C11.3566 106.627 14.1021 107.486 14.1021 108.182V123.466V123.48ZM72.8383 118.066C74.0938 117.782 76.9202 120.788 77.5587 120.791C78.6796 120.796 79.8839 117.3 77.6207 116.382C75.8128 115.651 74.4764 116.62 73.0107 117.506L72.841 118.066H72.8383Z" fill="#01D0FE"/>
<path d="M78.4182 0.167914C82.0098 -0.899089 81.7915 3.42309 82.4678 5.72771C84.0224 11.0113 87.8187 15.0112 93.0565 16.739C95.573 17.5704 100.328 17.1398 99.1861 21.0232C98.755 22.4883 95.4383 22.5804 94.1261 22.9731C88.6917 24.6007 84.4239 28.0644 82.6025 33.5889C81.8508 35.8692 81.9936 41.4696 78.2943 39.9449C76.6346 39.2625 76.7073 36.2944 76.2628 34.683C74.5842 28.5952 70.4673 24.7523 64.4805 22.9758C62.1957 22.2988 58.3375 22.6589 59.4206 18.9705C59.8759 17.416 64.0198 17.2264 65.5636 16.7552C71.1597 15.041 74.7135 10.9219 76.3167 5.37023C76.7181 3.97825 76.8043 0.649961 78.4128 0.170622L78.4182 0.167914ZM87.3876 19.8641C83.4431 18.9271 80.5009 15.9292 79.5741 12.016C78.6176 13.0234 78.3401 14.6564 77.5399 15.7857C76.2224 17.6435 73.7193 19.3604 71.4965 19.8641C73.1266 21.0205 75.0503 21.4592 76.5214 22.9325C77.9764 24.3921 78.3805 26.3772 79.5768 27.9777C80.1938 25.4998 81.6757 22.9947 83.912 21.6434L87.3903 19.8669L87.3876 19.8641Z" fill="#01D0FE"/>
<path d="M154.746 122.938C154.414 120.672 153.862 118.402 151.874 117.032C150.332 115.97 145.448 115.201 148.727 112.431C149.635 111.664 155.487 107.824 156.438 107.459C157.658 106.987 159.143 107.475 158.987 108.97C158.83 110.465 153.425 112.669 152.321 113.877C154.81 114.779 156.807 116.88 157.561 119.434C157.99 120.883 158.96 125.281 156.979 125.858L128.46 125.99C127.754 127.065 127.573 128.284 126.835 129.405C124.882 132.373 121.619 133.015 118.243 132.674C116.831 132.53 115.489 132.23 116.069 130.499C116.556 129.04 118.925 130.12 120.398 129.971C122.473 129.76 124.23 128.303 124.831 126.315C123.233 125.682 121.646 125.99 119.849 125.381C111.372 122.516 115.856 110.868 124.316 113.322C126.307 113.899 128.347 116.358 128.347 118.473V123.206C128.543 123.28 128.67 122.936 128.751 122.936H154.751L154.746 122.938ZM124.839 123.209V118.746C124.839 118.378 124.025 116.997 123.632 116.712C122.193 115.675 119.552 116.349 119.032 118.056C117.825 122.007 121.597 123.474 124.839 123.209Z" fill="#01D0FE"/>
<path d="M105.372 113.24C106.377 113.064 109.284 114.684 110.117 115.404C112.224 117.23 115.155 124.636 111.839 125.979C111.081 126.286 104.661 126.364 103.696 126.18C102.166 125.887 101.579 123.61 103.271 123.057C104.664 122.602 107.646 123.011 109.195 123.103L109.737 122.808C109.317 120.685 109.077 118.616 107.145 117.303C106.345 116.758 104.041 116.29 103.858 115.721C103.543 114.752 104.389 113.411 105.37 113.238L105.372 113.24Z" fill="#01D0FE"/>
<path d="M3.05806 145.123C3.86905 145.256 3.49184 144.923 3.60231 144.468C3.88252 143.333 4.16004 140.406 4.6531 139.626C5.07611 138.954 7.02949 139.027 7.49291 139.726C7.95634 140.425 8.17727 143.387 8.43862 144.468C8.54909 144.928 8.17458 145.256 8.98287 145.123L10.0337 135.542L11.9385 135.667C11.3377 138.713 11.4185 142.142 10.7503 145.14C10.2842 147.236 9.26308 146.927 7.33664 146.586L6.28855 141.067C5.58533 141.01 5.84129 141.029 5.76046 141.473C5.60689 142.304 5.12999 146.318 4.69082 146.626C3.92563 146.794 2.17702 146.992 1.68665 146.366C0.749026 145.172 0.749026 137.79 0.223633 135.91C0.668196 135.453 1.95339 135.008 2.21204 135.829L3.06075 145.121L3.05806 145.123Z" fill="#01D0FE"/>
<path d="M94.797 107.637C95.5029 107.637 96.4082 108.274 96.5402 109.013L96.4055 125.638C95.9125 126.765 93.2801 126.935 93.0511 125.503L93.0295 108.991C92.8894 108.165 94.1342 107.637 94.7943 107.637H94.797Z" fill="#01D0FE"/>
<path d="M72.2994 136.059C72.5096 135.377 74.6489 135.526 75.115 136.208L78.7658 144.04V136.059C78.7658 135.507 80.6518 135.507 80.6518 136.059V146.339C79.8624 147.051 78.623 147.322 77.8363 146.461L74.1854 138.9V146.745H72.2994V136.059Z" fill="#01D0FE"/>
<path d="M124.23 135.721C129.486 134.819 130.109 138.873 129.686 143.092C129.433 145.624 128.064 146.938 125.485 146.989C121.204 147.073 120.759 143.301 121.072 139.853C121.261 137.79 121.996 136.105 124.23 135.721ZM123.834 137.619C122.84 138.423 121.967 147.103 126.515 145.05C128.091 144.338 127.91 140.035 127.479 138.551C127.094 137.221 124.752 136.877 123.834 137.622V137.619Z" fill="#01D0FE"/>
<path d="M136.963 146.748V136.062L137.367 135.656H141.678C142.513 135.656 143.629 136.617 144.022 137.359C144.922 139.054 145.027 144.565 143.572 145.944C143.43 146.079 142.295 146.748 142.217 146.748H136.963ZM138.849 145.123C142.969 145.844 142.899 143.466 142.632 140.108C142.411 137.321 141.554 137.126 138.849 137.278V145.123Z" fill="#01D0FE"/>
<path d="M48.8588 140.254H53.1697V135.656C53.8245 135.675 54.6193 135.45 55.0558 136.062V146.748H53.1697V141.879H48.8588V146.748H46.9728V135.656C47.6275 135.675 48.4224 135.45 48.8588 136.062V140.254Z" fill="#01D0FE"/>
<path d="M26.4959 146.745L24.3674 146.721L23.7909 143.785L20.1939 143.756L19.4799 146.735L17.338 146.745C18.5423 143.907 18.8387 139.309 20.105 136.674C20.7463 135.339 22.7023 135.16 23.4972 136.368L26.4986 146.745H26.4959ZM22.185 137.278C21.4845 137.202 21.7566 137.278 21.6408 137.673C21.2124 139.13 21.0157 140.69 20.5711 142.147H23.2628L22.185 137.278Z" fill="#01D0FE"/>
<path d="M95.4706 146.342L95.0152 146.697C91.4641 147.249 88.5004 147.127 88.1824 142.835C87.7352 136.777 89.0312 134.727 95.4544 135.937L95.4679 137.546C90.8956 136.555 89.6751 137.706 90.0846 142.277C90.3163 144.863 90.9172 145.394 93.5819 145.123V140.796H95.4679V146.342H95.4706Z" fill="#01D0FE"/>
<path d="M158.518 137.278H154.611C153.813 137.278 153.875 139.666 153.937 140.254L157.54 140.289C158.162 140.495 157.971 141.348 157.982 141.874H153.94L154.209 145.121H158.116L158.52 146.743C157.262 146.718 153.568 147.309 152.655 146.41C151.857 145.624 151.903 139.301 152.054 137.949C152.423 134.627 155.637 135.84 158.079 135.688C158.701 135.894 158.51 136.747 158.52 137.272L158.518 137.278Z" fill="#01D0FE"/>
<path d="M39.4287 137.278H35.2525C34.8322 137.278 34.4119 138.318 34.7056 138.903C35.2741 140.035 39.2805 140.909 39.6469 143.436C40.2181 147.395 35.7348 146.846 33.1348 146.708C32.5124 146.502 32.7037 145.649 32.6929 145.123H36.8691C36.9688 145.123 37.4349 144.584 37.4942 144.389C38.1435 142.22 33.1213 141.543 32.7091 139.022C32.119 135.404 35.7995 135.312 38.4992 135.642C39.6469 135.783 39.4476 136.219 39.4287 137.278Z" fill="#01D0FE"/>
<path d="M110.155 146.748C107.25 146.169 107.285 138.838 108.549 137.021C109.613 135.488 114.894 134.51 114.6 137.278C111.919 137.359 110.09 136.52 109.753 139.853C109.327 144.078 109.81 145.562 114.347 145.242L114.6 146.748C113.28 146.569 111.386 146.995 110.155 146.748Z" fill="#01D0FE"/>
<path d="M64.7553 146.748H62.8693V135.656C63.524 135.675 64.3188 135.45 64.7553 136.062V146.748Z" fill="#01D0FE"/>
<path d="M75.1904 108.111C78.4128 107.413 78.5449 111.64 76.1415 112.073C73.7382 112.507 72.6685 108.656 75.1904 108.111Z" fill="#01D0FE"/>
<path d="M39.7682 128.42C41.1504 126.949 43.8582 128.701 42.6754 130.667C41.4494 132.712 38.0357 130.258 39.7682 128.42Z" fill="#01D0FE"/>
<path d="M36.9284 127.859C39.1242 127.52 39.5984 130.765 37.8929 131.268C34.9265 132.146 34.7136 128.2 36.9284 127.859Z" fill="#01D0FE"/>
</g>
<defs>
<clipPath id="clip0_11_322">
<rect width="159" height="147" fill="white"/>
</clipPath>
</defs>
</svg>
