<svg fill="none" height="23" viewBox="0 0 20 23" width="20" xmlns="http://www.w3.org/2000/svg">
    <path
        d="M18.3809 11.1531C17.5608 10.1954 17.1881 9.36537 17.1881 7.9553V7.47585C17.1881 5.63835 16.7652 4.45443 15.8457 3.27052C14.4285 1.43189 12.0428 0.32373 9.7073 0.32373H9.60799C7.32158 0.32373 5.01062 1.381 3.56892 3.145C2.59923 4.35266 2.12722 5.58747 2.12722 7.47585V7.9553C2.12722 9.36537 1.77907 10.1954 0.934359 11.1531C0.312821 11.8587 0.114197 12.7656 0.114197 13.7471C0.114197 14.7297 0.436682 15.6604 1.08388 16.4169C1.9286 17.3237 3.12146 17.9027 4.33998 18.0033C6.10417 18.2046 7.86835 18.2804 9.6582 18.2804C11.4469 18.2804 13.2111 18.1537 14.9764 18.0033C16.1938 17.9027 17.3867 17.3237 18.2314 16.4169C18.8775 15.6604 19.2011 14.7297 19.2011 13.7471C19.2011 12.7656 19.0025 11.8587 18.3809 11.1531"
        fill="white" />
    <path d="M11.913 19.6668C11.3517 19.5469 7.93156 19.5469 7.37028 19.6668C6.89046 19.7776 6.37158 20.0354 6.37158 20.6008C6.39948 21.1402 6.71527 21.6162 7.15269 21.9182L7.15157 21.9193C7.71732 22.3603 8.38126 22.6407 9.07644 22.7414C9.44691 22.7922 9.82407 22.79 10.2079 22.7414C10.902 22.6407 11.5659 22.3603 12.1317 21.9193L12.1306 21.9182C12.568 21.6162 12.8838 21.1402 12.9117 20.6008C12.9117 20.0354 12.3928 19.7776 11.913 19.6668"
        fill="white"
        opacity="0.4" />
</svg>
