<svg fill="none" height="17" viewBox="0 0 18 17" width="18" xmlns="http://www.w3.org/2000/svg">
    <path
        d="M17.0407 15.5624C15.8508 13.5054 14.0172 12.0304 11.8774 11.3312C12.9358 10.7011 13.7582 9.74093 14.2182 8.59821C14.6781 7.45548 14.7503 6.19337 14.4235 5.00568C14.0968 3.81798 13.3892 2.77039 12.4094 2.02378C11.4296 1.27716 10.2318 0.872803 9.00003 0.872803C7.76821 0.872803 6.57044 1.27716 5.59067 2.02378C4.6109 2.77039 3.90331 3.81798 3.57654 5.00568C3.24978 6.19337 3.32193 7.45548 3.78189 8.59821C4.24186 9.74093 5.06422 10.7011 6.12268 11.3312C3.98284 12.0296 2.14925 13.5046 0.959403 15.5624C0.91577 15.6336 0.886828 15.7127 0.874285 15.7953C0.861743 15.8778 0.865854 15.962 0.886376 16.0429C0.906897 16.1238 0.943414 16.1997 0.993772 16.2663C1.04413 16.3328 1.10731 16.3886 1.17958 16.4304C1.25185 16.4721 1.33175 16.499 1.41457 16.5093C1.49738 16.5197 1.58143 16.5134 1.66176 16.4907C1.74209 16.4681 1.81708 16.4296 1.88228 16.3775C1.94749 16.3254 2.00161 16.2608 2.04143 16.1874C3.51331 13.6437 6.11487 12.1249 9.00003 12.1249C11.8852 12.1249 14.4867 13.6437 15.9586 16.1874C15.9985 16.2608 16.0526 16.3254 16.1178 16.3775C16.183 16.4296 16.258 16.4681 16.3383 16.4907C16.4186 16.5134 16.5027 16.5197 16.5855 16.5093C16.6683 16.499 16.7482 16.4721 16.8205 16.4304C16.8927 16.3886 16.9559 16.3328 17.0063 16.2663C17.0566 16.1997 17.0932 16.1238 17.1137 16.0429C17.1342 15.962 17.1383 15.8778 17.1258 15.7953C17.1132 15.7127 17.0843 15.6336 17.0407 15.5624ZM4.62503 6.49993C4.62503 5.63463 4.88162 4.78877 5.36235 4.06931C5.84308 3.34984 6.52636 2.78909 7.32579 2.45796C8.12522 2.12682 9.00488 2.04018 9.85355 2.20899C10.7022 2.3778 11.4818 2.79448 12.0936 3.40634C12.7055 4.01819 13.1222 4.79774 13.291 5.64641C13.4598 6.49508 13.3731 7.37474 13.042 8.17417C12.7109 8.9736 12.1501 9.65688 11.4306 10.1376C10.7112 10.6183 9.86532 10.8749 9.00003 10.8749C7.84009 10.8737 6.72801 10.4124 5.90781 9.59215C5.0876 8.77195 4.62627 7.65987 4.62503 6.49993Z"
        fill="#111111" />
</svg>
