<svg width="24" height="24" viewBox="0 0 24 24" fill="none" xmlns="http://www.w3.org/2000/svg">
<path d="M19.275 12.9901L18.27 12.3826C17.8394 12.1233 17.3344 12.0157 16.8356 12.0769C16.3367 12.1381 15.8727 12.3645 15.5175 12.7201L14.985 13.2601C14.8721 13.3731 14.7262 13.4471 14.5684 13.4714C14.4105 13.4957 14.2491 13.4689 14.1075 13.3951C12.6334 12.5808 11.4193 11.3667 10.605 9.8926C10.5276 9.74935 10.4988 9.58478 10.5232 9.42377C10.5475 9.26275 10.6236 9.11404 10.74 9.0001L11.28 8.4676C11.6356 8.11241 11.862 7.64839 11.9232 7.14952C11.9844 6.65066 11.8767 6.14568 11.6175 5.7151L11.01 4.7251C10.7191 4.23388 10.3187 3.81652 9.83994 3.50558C9.36118 3.19465 8.81704 2.99855 8.24999 2.9326C7.68498 2.86402 7.11177 2.92494 6.5738 3.11076C6.03584 3.29658 5.54722 3.60242 5.14499 4.0051L4.87499 4.2751C3.73307 5.43776 3.04487 6.97066 2.93482 8.59659C2.82478 10.2225 3.30015 11.8342 4.27499 13.1401C6.14568 15.6371 8.36302 17.8544 10.86 19.7251C12.1653 20.7014 13.7773 21.1777 15.4037 21.0676C17.03 20.9576 18.5631 20.2684 19.725 19.1251L19.995 18.8551C20.3963 18.4502 20.7 17.9592 20.883 17.4193C21.0661 16.8795 21.1236 16.305 21.0513 15.7396C20.979 15.1741 20.7787 14.6326 20.4657 14.1562C20.1527 13.6798 19.7353 13.281 19.245 12.9901H19.275ZM18.9375 17.7901L18.6675 18.0601C17.7621 18.951 16.5673 19.4878 15.2999 19.5731C14.0326 19.6584 12.7766 19.2866 11.76 18.5251C9.37572 16.7409 7.25923 14.6244 5.47499 12.2401C4.71351 11.2234 4.34169 9.9675 4.42701 8.70015C4.51232 7.4328 5.04912 6.23802 5.93999 5.3326L6.20249 5.0626C6.62527 4.64327 7.19703 4.40863 7.79249 4.4101C7.88484 4.40265 7.97764 4.40265 8.06999 4.4101C8.41494 4.44946 8.7461 4.56812 9.03756 4.75678C9.32901 4.94545 9.57285 5.199 9.74999 5.4976L10.35 6.5026C10.4358 6.64587 10.4713 6.81368 10.4509 6.97942C10.4305 7.14517 10.3554 7.29938 10.2375 7.4176L9.70499 7.9501C9.36008 8.29317 9.13565 8.73878 9.06534 9.22015C8.99502 9.70152 9.08262 10.1927 9.31499 10.6201C10.2596 12.3447 11.6779 13.763 13.4025 14.7076C13.8299 14.94 14.3211 15.0276 14.8024 14.9573C15.2838 14.8869 15.7294 14.6625 16.0725 14.3176L16.605 13.7851C16.7232 13.6672 16.8774 13.592 17.0432 13.5717C17.2089 13.5513 17.3767 13.5868 17.52 13.6726L18.525 14.2726C18.8178 14.4485 19.0668 14.6887 19.2529 14.975C19.4391 15.2614 19.5577 15.5864 19.5996 15.9254C19.6415 16.2643 19.6057 16.6084 19.4949 16.9315C19.3841 17.2546 19.2012 17.5482 18.96 17.7901H18.9375Z" fill="#32D34B"/>
</svg>
