<svg width="62" height="62" viewBox="0 0 62 62" fill="none" xmlns="http://www.w3.org/2000/svg">
<path fill-rule="evenodd" clip-rule="evenodd" d="M31.2235 56.8334C30.9036 56.8334 30.5837 56.76 30.295 56.6105L20.9922 51.7949C18.3524 50.427 16.2874 48.8919 14.675 47.1034C11.1458 43.1922 9.18223 38.1714 9.15102 32.9632L9.04179 15.8211C9.02878 13.8427 10.3057 12.0669 12.2147 11.3981L29.2963 5.44262C30.3106 5.08037 31.4419 5.07531 32.4744 5.42489L49.6211 11.1778C51.5404 11.8187 52.8382 13.5818 52.8486 15.5576L52.9578 32.7124C52.9916 37.913 51.0957 42.9541 47.6211 46.9084C46.0269 48.7221 43.9801 50.2801 41.3663 51.6733L32.1467 56.5978C31.8606 56.7524 31.5434 56.8309 31.2235 56.8334Z" fill="#01D0FE" fill-opacity="0.1"/>
<path fill-rule="evenodd" clip-rule="evenodd" d="M29.2413 36.9957C28.7419 36.9982 28.2426 36.8184 27.8577 36.4485L22.9059 31.6861C22.1413 30.9464 22.1335 29.7457 22.8903 29.001C23.6471 28.2537 24.8824 28.2461 25.6497 28.9832L29.2127 32.4081L37.9121 23.8307C38.6715 23.0834 39.9069 23.0758 40.6715 23.813C41.4387 24.5527 41.4465 25.7559 40.6897 26.4982L30.6171 36.4308C30.2374 36.8057 29.7406 36.9932 29.2413 36.9957Z" fill="#01D0FE"/>
</svg>
