<svg width="32" height="32" viewBox="0 0 32 32" fill="none" xmlns="http://www.w3.org/2000/svg">
<rect x="0.385864" y="0.222656" width="31.256" height="31.256" rx="15.628" fill="white"/>
<mask id="mask0_1140_13902" style="mask-type:alpha" maskUnits="userSpaceOnUse" x="4" y="4" width="24" height="23">
<rect x="4.9823" y="4.81934" width="22.0631" height="22.0631" fill="#D9D9D9"/>
</mask>
<g mask="url(#mask0_1140_13902)">
<path d="M16.0138 25.9632L9.39486 20.999C9.16504 20.8304 8.98501 20.6159 8.85477 20.3555C8.72454 20.095 8.65942 19.8192 8.65942 19.5281V8.49655C8.65942 7.99094 8.83945 7.5581 9.19951 7.19804C9.55957 6.83799 9.9924 6.65796 10.498 6.65796H21.5296C22.0352 6.65796 22.468 6.83799 22.8281 7.19804C23.1881 7.5581 23.3681 7.99094 23.3681 8.49655V19.5281C23.3681 19.8192 23.303 20.095 23.1728 20.3555C23.0426 20.6159 22.8625 20.8304 22.6327 20.999L16.0138 25.9632ZM16.0138 23.6649L21.5296 19.5281V8.49655H10.498V19.5281L16.0138 23.6649ZM15.0485 18.6088L20.2425 13.4148L18.9555 12.0818L15.0485 15.9888L13.118 14.0583L11.785 15.3453L15.0485 18.6088Z" fill="#01D0FE"/>
</g>
</svg>
