<svg width="18" height="20" viewBox="0 0 18 20" fill="none" xmlns="http://www.w3.org/2000/svg">
<path opacity="0.4" d="M16.6432 7.48851C16.6432 7.5565 16.1103 14.2973 15.8059 17.1342C15.6152 18.8751 14.4929 19.9311 12.8094 19.9611C11.5159 19.9901 10.2497 20.0001 9.00382 20.0001C7.68115 20.0001 6.38766 19.9901 5.13209 19.9611C3.50501 19.9221 2.38171 18.8451 2.20082 17.1342C1.88766 14.2873 1.36442 7.5565 1.3547 7.48851C1.34497 7.28351 1.41111 7.08852 1.54532 6.93053C1.67758 6.78453 1.8682 6.69653 2.06855 6.69653H15.9391C16.1385 6.69653 16.3194 6.78453 16.4623 6.93053C16.5956 7.08852 16.6627 7.28351 16.6432 7.48851Z" fill="black"/>
<path d="M18 3.97686C18 3.56588 17.6761 3.24389 17.2871 3.24389H14.3714C13.7781 3.24389 13.2627 2.8219 13.1304 2.22692L12.967 1.49795C12.7385 0.616978 11.9498 0 11.0647 0H6.93624C6.0415 0 5.26054 0.616978 5.02323 1.54595L4.87054 2.22792C4.7373 2.8219 4.22185 3.24389 3.62957 3.24389H0.713853C0.32386 3.24389 0 3.56588 0 3.97686V4.35685C0 4.75783 0.32386 5.08982 0.713853 5.08982H17.2871C17.6761 5.08982 18 4.75783 18 4.35685V3.97686Z" fill="black"/>
</svg>
