<svg width="25" height="27" viewBox="0 0 25 27" fill="none" xmlns="http://www.w3.org/2000/svg">
<mask id="mask0_1140_13930" style="mask-type:alpha" maskUnits="userSpaceOnUse" x="1" y="4" width="23" height="23">
<rect width="22.2419" height="22.2419" transform="matrix(1 0 0 -1 1.61316 26.4312)" fill="#D9D9D9"/>
</mask>
<g mask="url(#mask0_1140_13930)">
<path d="M12.7341 6.04295C11.4521 6.04295 10.2474 6.28623 9.11983 6.77277C7.99229 7.25931 7.01148 7.91961 6.17741 8.75369C5.34334 9.58776 4.68303 10.5686 4.19649 11.6961C3.70995 12.8236 3.46667 14.0284 3.46667 15.3104C3.46667 16.5924 3.70995 17.7972 4.19649 18.9247C4.68303 20.0523 5.34334 21.0331 6.17741 21.8671C7.01148 22.7012 7.99229 23.3615 9.11983 23.8481C10.2474 24.3346 11.4521 24.5779 12.7341 24.5779C14.0161 24.5779 15.2209 24.3346 16.3484 23.8481C17.476 23.3615 18.4568 22.7012 19.2909 21.8671C20.1249 21.0331 20.7852 20.0523 21.2718 18.9247C21.7583 17.7972 22.0016 16.5924 22.0016 15.3104C22.0016 14.0284 21.7583 12.8236 21.2718 11.6961C20.7852 10.5686 20.1249 9.58776 19.2909 8.75369C18.4568 7.91961 17.476 7.25931 16.3484 6.77277C15.2209 6.28623 14.0161 6.04295 12.7341 6.04295ZM12.7341 7.89645C14.8039 7.89645 16.557 8.61468 17.9934 10.0511C19.4299 11.4876 20.1481 13.2407 20.1481 15.3104C20.1481 17.3802 19.4299 19.1332 17.9934 20.5697C16.557 22.0062 14.8039 22.7244 12.7341 22.7244C10.6644 22.7244 8.91131 22.0062 7.47485 20.5697C6.0384 19.1332 5.32017 17.3802 5.32017 15.3104C5.32017 13.2407 6.0384 11.4876 7.47485 10.0511C8.91131 8.61468 10.6644 7.89645 12.7341 7.89645Z" fill="#01D0FE"/>
</g>
<mask id="mask1_1140_13930" style="mask-type:alpha" maskUnits="userSpaceOnUse" x="0" y="0" width="25" height="26">
<rect width="24.2622" height="24.2622" transform="matrix(1 0 0 -1 0.642578 25.1108)" fill="#D9D9D9"/>
</mask>
<g mask="url(#mask1_1140_13930)">
<path d="M12.7737 10.958L16.8174 15.0017L15.4021 16.417L13.7846 14.8501V19.0454H11.7628V14.8501L10.1453 16.417L8.72998 15.0017L12.7737 10.958Z" fill="#01D0FE"/>
</g>
</svg>
