<svg width="20" height="16" viewBox="0 0 20 16" fill="none" xmlns="http://www.w3.org/2000/svg">
<path opacity="0.4" d="M10 0C12.0682 0 14.0291 0.717533 15.7363 2.0459C17.4436 3.3637 18.8975 5.29449 19.9414 7.70898C20.0195 7.89226 20.0195 8.1067 19.9414 8.28125C17.8536 13.1103 14.1366 16 10 16H9.99023C5.86342 16 2.1464 13.1103 0.0585938 8.28125C-0.019455 8.1067 -0.019455 7.89226 0.0585938 7.70898C2.14641 2.87899 5.86344 4.43543e-06 9.99023 0H10ZM10 4.12109C7.8439 4.12109 6.09766 5.85697 6.09766 8C6.09766 10.1333 7.8439 11.8691 10 11.8691C12.1463 11.8691 13.8926 10.1333 13.8926 8C13.8926 5.85697 12.1463 4.12109 10 4.12109Z" fill="white"/>
<path d="M12.431 7.997C12.431 9.32548 11.3384 10.4115 10.0018 10.4115C8.65543 10.4115 7.56274 9.32548 7.56274 7.997C7.56274 7.83215 7.58226 7.67797 7.61152 7.52281H7.66031C8.74323 7.52281 9.62128 6.66948 9.66031 5.60184C9.76762 5.58342 9.8847 5.57275 10.0018 5.57275C11.3384 5.57275 12.431 6.65881 12.431 7.997Z" fill="white"/>
</svg>
